<svg xmlns="http://www.w3.org/2000/svg"  viewBox="0 0 50 50" width="50px" height="50px"><path fill="#ffffff" d="M 5 4 C 2.242188 4 0 6.242188 0 9 L 0 38 C 0 40.757813 2.242188 43 5 43 L 21 43 C 22.652344 43 24 44.347656 24 46 L 24 9 C 24 6.242188 21.757813 4 19 4 Z M 31 4 C 28.242188 4 26 6.242188 26 9 L 26 46 C 26 44.347656 27.347656 43 29 43 L 45 43 C 47.757813 43 50 40.757813 50 38 L 50 9 C 50 6.242188 47.757813 4 45 4 Z M 11.40625 10 C 14.238281 10 16 14.5 16 18 C 16 22.75 13 22.167969 13 24 L 13 32 C 13 36 12.613281 37 11.53125 37 C 10.449219 37 10 36.25 10 32 L 10 24 C 10 22.167969 7 22.667969 7 18 C 7 14.75 8.570313 10 11.40625 10 Z M 31 12 L 40 12 C 40.550781 12 41 12.445313 41 13 C 41 13.554688 40.550781 14 40 14 L 31 14 C 30.449219 14 30 13.554688 30 13 C 30 12.445313 30.449219 12 31 12 Z M 44 12 L 45 12 C 45.550781 12 46 12.445313 46 13 C 46 13.554688 45.550781 14 45 14 L 44 14 C 43.449219 14 43 13.554688 43 13 C 43 12.445313 43.449219 12 44 12 Z M 31 17 L 40 17 C 40.550781 17 41 17.445313 41 18 C 41 18.554688 40.550781 19 40 19 L 31 19 C 30.449219 19 30 18.554688 30 18 C 30 17.445313 30.449219 17 31 17 Z M 44 17 L 45 17 C 45.550781 17 46 17.445313 46 18 C 46 18.554688 45.550781 19 45 19 L 44 19 C 43.449219 19 43 18.554688 43 18 C 43 17.445313 43.449219 17 44 17 Z M 31 22 L 40 22 C 40.550781 22 41 22.445313 41 23 C 41 23.554688 40.550781 24 40 24 L 31 24 C 30.449219 24 30 23.554688 30 23 C 30 22.445313 30.449219 22 31 22 Z M 44 22 L 45 22 C 45.550781 22 46 22.445313 46 23 C 46 23.554688 45.550781 24 45 24 L 44 24 C 43.449219 24 43 23.554688 43 23 C 43 22.445313 43.449219 22 44 22 Z M 31 27 L 40 27 C 40.550781 27 41 27.445313 41 28 C 41 28.554688 40.550781 29 40 29 L 31 29 C 30.449219 29 30 28.554688 30 28 C 30 27.445313 30.449219 27 31 27 Z M 44 27 L 45 27 C 45.550781 27 46 27.445313 46 28 C 46 28.554688 45.550781 29 45 29 L 44 29 C 43.449219 29 43 28.554688 43 28 C 43 27.445313 43.449219 27 44 27 Z M 31 32 L 40 32 C 40.550781 32 41 32.445313 41 33 C 41 33.554688 40.550781 34 40 34 L 31 34 C 30.449219 34 30 33.554688 30 33 C 30 32.445313 30.449219 32 31 32 Z M 44 32 L 45 32 C 45.550781 32 46 32.445313 46 33 C 46 33.554688 45.550781 34 45 34 L 44 34 C 43.449219 34 43 33.554688 43 33 C 43 32.445313 43.449219 32 44 32 Z"/></svg>